<svg width="275" height="120" fill="none" xmlns="http://www.w3.org/2000/svg"><path d="M274.932 0H0v60h274.932V0z" fill="#FF267E"/><path d="M46.752 28.887H26.64V23.06h24.312V15H14.984v29.998h11.657v-8.057h20.11v-8.055zM110.653 34.972 99.981 15.001H86.61l17.312 29.998h13.287l17.312-29.998h-13.198l-10.671 19.971zM162.954 37.798h-13.953v-4.543h13.953c1.499 0 2.57.943 2.57 2.27 0 1.33-1.071 2.273-2.57 2.273zm-13.953-15.596h13.011c1.5 0 2.572.941 2.572 2.269 0 1.329-1.072 2.272-2.572 2.272h-13.011v-4.541zm22.858 7.563c3.038-1.48 4.466-3.815 4.466-6.45 0-4.93-4.156-8.314-12.342-8.314h-26.339v29.998h26.94c8.785 0 12.683-3.471 12.683-8.486 0-2.804-1.697-5.35-5.408-6.747zM194.453 33.256h20.068v-6.511h-20.068V23.06h22.188V15h-33.845v30h34.373v-8.058h-22.716v-3.686zM222.004 15v8.057h13.077V45h11.787V23.057h13.079v-8.056h-37.943zM66.062 32.782l5.119-9.657 5.118 9.657H66.062zM64.516 15 47.203 44.999h12.385l2.342-4.418h18.502L82.774 45h12.898L78.359 15.001H64.516z" fill="#005"/><path d="M274.928 60h-67.942v60h67.942V60z" fill="#FF267E"/><path d="m218.442 89.985 9.871 17.412 12.661.001-9.871-17.412-12.661-.001zM250.841 89.974l-9.87 17.413 12.661-.001 9.869-17.413-12.66.001z" fill="#005"/><path d="m240.945 72.615-9.871 17.373h19.741l-9.87-17.373z" fill="#005"/></svg>