<svg width="127" height="55" fill="none" xmlns="http://www.w3.org/2000/svg"><path d="M126.01 0H0v27.5h126.01V0z" fill="#FF267E"/><path d="M21.428 13.24H12.21v-2.671h11.143V6.875H6.868v13.75h5.342v-3.693h9.218V13.24zM50.715 16.029l-4.892-9.154h-6.127l7.935 13.75h6.09l7.934-13.75h-6.05l-4.89 9.154zM74.687 17.324h-6.395v-2.082h6.395c.688 0 1.178.432 1.178 1.04 0 .61-.49 1.042-1.178 1.042zm-6.395-7.148h5.964c.687 0 1.178.431 1.178 1.04s-.49 1.041-1.178 1.041h-5.964v-2.081zm10.477 3.466c1.393-.678 2.047-1.748 2.047-2.956 0-2.26-1.905-3.81-5.657-3.81H63.087v13.749h12.347c4.027 0 5.814-1.591 5.814-3.89 0-1.285-.778-2.452-2.48-3.092zM89.124 15.242h9.198v-2.984h-9.198v-1.689h10.17V6.875H83.78v13.75h15.754v-3.693H89.124v-1.69zM101.752 6.875v3.693h5.994v10.057h5.402V10.568h5.995V6.875h-17.391zM30.279 15.025l2.346-4.426 2.345 4.426H30.28zm-.709-8.15-7.935 13.75h5.676l1.074-2.025h8.48l1.073 2.025h5.912l-7.935-13.75H29.57z" fill="#005"/><path d="M126.008 27.5h-31.14V55h31.14V27.5z" fill="#FF267E"/><path d="m100.119 41.243 4.524 7.98 5.803.001-4.524-7.98-5.803-.001zM114.968 41.238l-4.524 7.981h5.803l4.524-7.981h-5.803z" fill="#005"/><path d="m110.433 33.282-4.524 7.963h9.048l-4.524-7.963z" fill="#005"/></svg>