<svg width="431" height="188" fill="none" xmlns="http://www.w3.org/2000/svg"><path d="M430.726 0H0v94h430.726V0z" fill="#FF267E"/><path d="M73.244 45.257H41.737v-9.131h38.09V23.5H23.474V70.5h18.262V57.877h31.507v-12.62zM173.356 54.79l-16.72-31.289H135.69L162.813 70.5h20.815L210.751 23.5h-20.678l-16.717 31.29zM255.294 59.217h-21.86V52.1h21.86c2.35 0 4.027 1.478 4.027 3.557 0 2.082-1.677 3.56-4.027 3.56zm-21.86-24.434h20.385c2.349 0 4.029 1.475 4.029 3.555 0 2.082-1.68 3.56-4.029 3.56h-20.385v-7.115zm35.811 11.85c4.761-2.319 6.997-5.979 6.997-10.107 0-7.722-6.511-13.025-19.335-13.025h-41.265V70.5h42.206c13.763 0 19.87-5.438 19.87-13.295 0-4.394-2.658-8.383-8.473-10.571zM304.643 52.102h31.441V41.9h-31.441v-5.772h34.761V23.501h-53.023v47h53.85V57.877h-35.588v-5.775zM347.805 23.501v12.622h20.489V70.5h18.465V36.123h20.491V23.501h-59.445zM103.497 51.358l8.02-15.128 8.017 15.128h-16.037zm-2.421-27.857L73.951 70.5h19.403l3.67-6.921h28.986l3.669 6.92h20.207l-27.123-46.997h-21.687z" fill="#005"/><path d="M106.442 94H0v94h106.442V94z" fill="#FF267E"/><path d="m17.948 140.976 15.464 27.279 19.837.002-15.465-27.279-19.836-.002zM68.705 140.959 53.243 168.24l19.835-.002 15.462-27.28-19.835.001zM53.203 113.764l-15.465 27.218h30.927l-15.462-27.218z" fill="#005"/></svg>