<svg width="310" height="135" fill="none" xmlns="http://www.w3.org/2000/svg"><path d="M309.298 0H0v67.5h309.298V0z" fill="#FF267E"/><path d="M52.595 32.498H29.971v-6.557h27.351v-9.065H16.857v33.748h13.114V41.56h22.624v-9.062zM124.484 39.344l-12.006-22.468h-15.04l19.476 33.748h14.947l19.476-33.748h-14.848l-12.005 22.468zM183.323 42.523h-15.697v-5.111h15.697c1.687 0 2.891 1.061 2.891 2.555 0 1.495-1.204 2.556-2.891 2.556zm-15.697-17.546h14.637c1.688 0 2.893 1.06 2.893 2.553 0 1.495-1.205 2.556-2.893 2.556h-14.637v-5.109zm25.715 8.51c3.419-1.666 5.024-4.294 5.024-7.258 0-5.545-4.675-9.353-13.884-9.353h-29.632v33.748h30.307c9.884 0 14.269-3.905 14.269-9.547 0-3.155-1.908-6.02-6.084-7.59zM218.76 37.414h22.577v-7.326H218.76v-4.145h24.961v-9.067h-38.075v33.75h38.669V41.56H218.76v-4.146zM249.754 16.876v9.064h14.712v24.684h13.26V25.94h14.714v-9.064h-42.686zM74.32 36.88l5.759-10.864 5.757 10.864H74.319zM72.58 16.875 53.103 50.624h13.933l2.635-4.97h20.815l2.635 4.97h14.51L88.154 16.876H72.581z" fill="#005"/><path d="M76.434 67.5H0V135h76.434V67.5z" fill="#FF267E"/><path d="m12.888 101.233 11.105 19.588 14.244.002-11.105-19.589-14.244-.001zM49.336 101.221 38.233 120.81l14.243-.001L63.58 101.22l-14.244.001z" fill="#005"/><path d="m38.204 81.692-11.105 19.545h22.208L38.204 81.692z" fill="#005"/></svg>