<svg width="275" height="120" fill="none" xmlns="http://www.w3.org/2000/svg"><path d="M274.932 0H0v60h274.932V0z" fill="#FF267E"/><path d="M46.751 28.887h-20.11V23.06h24.312v-8.058h-35.97v29.998H26.64v-8.056h20.111v-8.056zM110.653 34.972 99.98 15.001H86.61l17.313 29.998h13.287l17.312-29.998h-13.199l-10.67 19.971zM162.954 37.798h-13.953v-4.543h13.953c1.5 0 2.57.943 2.57 2.27 0 1.33-1.07 2.273-2.57 2.273zm-13.953-15.596h13.011c1.5 0 2.572.942 2.572 2.27s-1.072 2.271-2.572 2.271h-13.011v-4.541zm22.858 7.564c3.038-1.48 4.466-3.816 4.466-6.451 0-4.93-4.156-8.314-12.342-8.314h-26.339v29.998h26.94c8.785 0 12.683-3.471 12.683-8.486 0-2.804-1.697-5.35-5.408-6.747zM194.453 33.257h20.068v-6.512h-20.068V23.06h22.188V15h-33.845v30h34.373v-8.058h-22.716v-3.686zM222.003 15v8.058h13.078v21.941h11.787V23.057h13.079v-8.056h-37.944zM66.062 32.782l5.119-9.656 5.118 9.656H66.062zM64.517 15 47.203 44.999h12.385l2.342-4.418h18.502L82.774 45h12.898L78.359 15.001H64.517z" fill="#005"/><path d="M67.942 60H0v60h67.942V60z" fill="#FF267E"/><path d="m11.456 89.984 9.871 17.413 12.662.001-9.871-17.412-12.662-.002zM43.854 89.974l-9.87 17.413 12.661-.001 9.87-17.413-12.66.001zM33.96 72.615l-9.872 17.373h19.74L33.96 72.615z" fill="#005"/></svg>